PathFileType	4	(x/y/z)	S01_M20_T12.trc
DataRate	CameraRate	NumFrames	NumMarkers	Units	OrigDataRate	OrigDataStartFrame	OrigNumFrames
240	240	4	51	mm	240	379	432
Frame#	Time	Sternum			R.Acromium			L.Acromium			Top.Head			R.ASIS			L.ASIS			R.PSIS			L.PSIS			R.Great.Tro			L.Great.Tro			R.Iliac.Crest			L.Iliac.Crest			V.Sacral			R.Thigh.Upper.Post			R.Thigh.Lower.Ant			R.Thigh.Lower.Post			R.Thigh.Upper.Ant			R.Knee.Lat			R.Knee.Med			R.Shank.Upper.Post			R.Shank.Lower.Ant			R.Shank.Lower.Post			R.Shank.Upper.Ant			R.Ankle.Lat			R.Ankle.Med			R.Heel.Upper			R.Heel.Med			R.Heel.Lat			R.Toe.Lat			R.Toe.Med			R.Toe.Tip			L.Thigh.Upper.Post			L.Thigh.Lower.Ant			L.Thigh.Lower.Post			L.Thigh.Upper.Ant			L.Knee.Lat			L.Knee.Med			L.Shank.Upper.Post			L.Shank.Lower.Ant			L.Shank.Lower.Post			L.Shank.Upper.Ant			L.Ankle.Lat			L.Ankle.Med			L.Heel.Upper			L.Heel.Med			L.Heel.Lat			L.Toe.Lat			L.Toe.Med			L.Toe.Tip			Cervical.Spine			Back			
		X1	Y1	Z1	X2	Y2	Z2	X3	Y3	Z3	X4	Y4	Z4	X5	Y5	Z5	X6	Y6	Z6	X7	Y7	Z7	X8	Y8	Z8	X9	Y9	Z9	X10	Y10	Z10	X11	Y11	Z11	X12	Y12	Z12	X13	Y13	Z13	X14	Y14	Z14	X15	Y15	Z15	X16	Y16	Z16	X17	Y17	Z17	X18	Y18	Z18	X19	Y19	Z19	X20	Y20	Z20	X21	Y21	Z21	X22	Y22	Z22	X23	Y23	Z23	X24	Y24	Z24	X25	Y25	Z25	X26	Y26	Z26	X27	Y27	Z27	X28	Y28	Z28	X29	Y29	Z29	X30	Y30	Z30	X31	Y31	Z31	X32	Y32	Z32	X33	Y33	Z33	X34	Y34	Z34	X35	Y35	Z35	X36	Y36	Z36	X37	Y37	Z37	X38	Y38	Z38	X39	Y39	Z39	X40	Y40	Z40	X41	Y41	Z41	X42	Y42	Z42	X43	Y43	Z43	X44	Y44	Z44	X45	Y45	Z45	X46	Y46	Z46	X47	Y47	Z47	X48	Y48	Z48	X49	Y49	Z49	X50	Y50	Z50	X51	Y51	Z51	

379	1.575	730.73	1279.9	294.12	625.29	1536.6	461.99	606.41	1543.3	131.63	665.15	1849	274.69	676.05	1031.5	457.42	679.85	1022.2	189.98	442.73	1072.3	367.01	438.19	1074	262.96	603.65	984.37	544.78	568.93	979.33	114.88	591.73	1134.8	518.72	569.09	1102.1	114.09	425.69	1037.2	311.99	713.41	690.23	526.27	807.25	655.92	502.6	753.11	612.59	504.54	769.66	736.37	522.2	796.62	567.07	502.15	809.4	570.01	354.1	760.63	405.18	519.75	834.93	331.07	484.13	766.33	335.14	508.44	824.79	402.43	500.75	800.86	129.12	476.82	836.74	145.76	387.76	745.33	81.426	413.66	769.84	58.642	385.36	761.77	54.251	448.77	942.66	88.517	518.21	977.98	109.93	401.14	1029.5	144.77	459.89	484.16	712.13	144.02	553.71	626.75	147.83	476.87	623.12	162.04	552.88	719.94	125.44	504.45	528.24	155.68	527.86	528.62	298.05	424.82	396.18	143.68	470.93	298.83	171.7	413.29	319.6	150.36	483.51	374.23	160.23	368.15	109.59	197.51	393.71	119.82	293.55	295.05	80.246	243.5	304.15	54.906	277.4	303.35	54	214.65	513.37	39.16	181.61	537.06	45.769	303.63	601.43	52.563	253.97	531.57	1598.4	301.24	434.49	1290.3	325.59
380	1.5792	735.86	1278.7	294.34	630.87	1535.3	462.47	611.52	1542.2	132.11	670.53	1847.9	275.36	681.34	1030.3	457.51	684.65	1021.3	189.99	447.88	1071.1	367.61	443.14	1073	263.6	609.11	983.01	544.94	573.37	978.7	115.06	597.12	1133.5	519.03	573.71	1101.1	114.38	430.69	1036.2	312.56	718.76	688.88	525.99	812.66	654.8	502.26	758.61	611.38	504.11	774.91	735.13	522.03	802.72	566.35	501.65	815.13	569.22	353.53	769.87	403.81	519.49	845.5	331.15	483.83	776.9	333.9	508.26	834.03	402.31	500.39	815.54	128.5	476.84	850.69	145.85	387.62	760.76	79.589	413.93	785.64	57.306	385.58	777.93	52.786	449.01	958.36	90.892	517.66	992.72	113.12	400.45	1043.7	149.01	458.97	486.9	712.2	144.23	555.85	626.37	147.82	479.09	623.22	162.16	555.59	719.59	125.47	505.96	528.16	155.6	529.72	528.27	297.98	425.73	396.31	143.81	471.54	298.77	171.65	413.9	319.76	150.51	484.39	374.13	160.18	368.24	109.76	197.71	393.92	119.92	293.69	295.15	80.467	243.74	304.24	55.068	277.6	303.4	54.263	214.85	513.39	39.14	181.58	537.1	45.703	303.55	601.48	52.465	253.93	536.95	1597.3	301.85	439.58	1289.3	326.29
381	1.5833	741.02	1277.5	294.56	636.48	1534.1	462.96	616.64	1541	132.61	675.93	1846.8	276.06	686.65	1029.1	457.59	689.46	1020.3	190.01	453.05	1069.9	368.2	448.12	1072.1	264.24	614.58	981.61	545.1	577.82	978.07	115.23	602.53	1132.2	519.34	578.35	1100.1	114.67	435.72	1035.2	313.13	724.1	687.5	525.74	818.07	653.64	501.93	764.11	610.12	503.7	780.18	733.85	521.87	808.79	565.6	501.17	820.82	568.36	352.99	779.04	402.47	519.22	855.95	331.26	483.53	787.4	332.71	508.06	843.18	402.19	500.04	830.08	128	476.81	864.53	146.05	387.45	776.09	77.92	414.14	801.33	56.141	385.73	793.96	51.492	449.18	973.81	93.351	517.1	1007.3	116.37	399.78	1057.7	153.29	458.09	489.66	712.26	144.47	558.02	625.99	147.82	481.34	623.31	162.32	558.33	719.24	125.5	507.51	528.07	155.54	531.64	527.92	297.93	426.68	396.46	143.96	472.18	298.72	171.6	414.54	319.94	150.67	485.29	374.03	160.14	368.34	109.94	197.92	394.15	120.03	293.85	295.25	80.706	244.01	304.35	55.247	277.82	303.46	54.544	215.06	513.41	39.121	181.56	537.14	45.634	303.47	601.52	52.363	253.9	542.34	1596.2	302.49	444.69	1288.2	326.99
382	1.5875	746.19	1276.2	294.8	642.1	1532.8	463.48	621.79	1539.8	133.13	681.35	1845.6	276.78	691.98	1027.8	457.67	694.29	1019.4	190.02	458.25	1068.8	368.79	453.12	1071.2	264.87	620.07	980.18	545.25	582.28	977.42	115.4	607.96	1130.9	519.65	583	1099.2	114.97	440.76	1034.1	313.7	729.46	686.11	525.51	823.49	652.44	501.62	769.6	608.84	503.33	785.46	732.55	521.73	814.84	564.8	500.73	826.47	567.44	352.47	788.13	401.15	518.95	866.3	331.4	483.22	797.8	331.57	507.86	852.23	402.09	499.7	844.48	127.62	476.73	878.24	146.36	387.25	791.29	76.411	414.28	816.89	55.139	385.81	809.83	50.361	449.28	989.03	95.885	516.55	1021.6	119.68	399.12	1071.5	157.59	457.26	492.45	712.31	144.74	560.21	625.6	147.81	483.63	623.39	162.49	561.08	718.88	125.54	509.11	527.97	155.49	533.63	527.55	297.89	427.66	396.6	144.13	472.84	298.67	171.57	415.21	320.12	150.85	486.23	373.93	160.11	368.44	110.15	198.15	394.39	120.15	294.01	295.36	80.965	244.28	304.46	55.445	278.05	303.52	54.845	215.29	513.42	39.102	181.54	537.19	45.564	303.39	601.57	52.257	253.86	547.75	1595.1	303.15	449.82	1287.2	327.71
